# xmcd CD database file
#
# Track frame offsets:
#	183
#	19870
#	30373
#	38010
#	46820
#	62170
#	76195
#	95570
#	113633
#	133258
#	155008
#	177383
#	200883
#	216070
#
# Disc length: 3116 seconds
#
# Revision: 0
# Processed by: cddbd v1.5.1PL2 Copyright (c) Steve Scherf et al.
# Submitted via: CDex 1.51
#
DISCID=bc0c2a0e
DTITLE=Various Artist - La música del Siglo XX
DYEAR=2000
DGENRE=New Age
TTITLE0=John Sposito - Falling Star
TTITLE1=Mysia - Against the Wind
TTITLE2=Mysia - Under Breath
TTITLE3=Mysia - Echoes of the Night
TTITLE4=John Sposito - The Aquiarius Era
TTITLE5=Tony Flynn - Autumn Forest
TTITLE6=Tony Flynn - Hand of Apollo
TTITLE7=Gian Franco Reverberi - Sweet Touches
TTITLE8=David Lindemann - Wings of an Angel
TTITLE9=David Lindemann - Voyage to the Valley
TTITLE10=Scopece - Eagles
TTITLE11=Scopece - Mutability
TTITLE12=John Sposito - May be Tomorrow
TTITLE13=Gian Franco Reverberi - The Sea
EXTD=YEAR: 2000
EXTT0=
EXTT1=
EXTT2=
EXTT3=
EXTT4=
EXTT5=
EXTT6=
EXTT7=
EXTT8=
EXTT9=
EXTT10=
EXTT11=
EXTT12=
EXTT13=
PLAYORDER=
